<?xml version="1.0" encoding="UTF-8"?>
<!DOCTYPE svg PUBLIC "-//W3C//DTD SVG 1.1//EN" "http://www.w3.org/Graphics/SVG/1.1/DTD/svg11.dtd">
<svg height="512px"
     style="shape-rendering:geometricPrecision; text-rendering:geometricPrecision; image-rendering:optimizeQuality; fill-rule:evenodd; clip-rule:evenodd"
     version="1.1" width="512px"
     xmlns="http://www.w3.org/2000/svg"
>
    <g>
        <path d="M 47.5,15.5 C 52.8333,15.5 58.1667,15.5 63.5,15.5C 63.5,20.8333 63.5,26.1667 63.5,31.5C 58.1667,31.5 52.8333,31.5 47.5,31.5C 47.5,26.1667 47.5,20.8333 47.5,15.5 Z"
              fill="#000000"
              style="opacity:1"/>
    </g>
    <g>
        <path d="M 144.5,15.5 C 148.605,15.2338 152.605,15.7338 156.5,17C 161.028,21.0283 165.028,25.5283 168.5,30.5C 172.985,26.5154 177.318,22.3487 181.5,18C 188.043,14.5053 194.377,14.8386 200.5,19C 204,23.8333 207.5,28.6667 211,33.5C 216.634,30.2662 222.468,27.4329 228.5,25C 241.509,24.3432 247.343,30.5099 246,43.5C 239.443,60.2806 232.61,76.9472 225.5,93.5C 230.927,101.348 235.594,109.682 239.5,118.5C 250.146,119.499 260.813,119.832 271.5,119.5C 271.015,88.0792 271.515,56.7459 273,25.5C 273.75,24.8742 274.584,24.3742 275.5,24C 304.833,23.3333 334.167,23.3333 363.5,24C 365.333,24.5 366.5,25.6667 367,27.5C 367.333,64.5 367.667,101.5 368,138.5C 373.833,132.667 379.667,126.833 385.5,121C 389.5,119 393.5,119 397.5,121C 419,142.5 440.5,164 462,185.5C 464.109,189.781 463.942,193.948 461.5,198C 456.964,199.379 452.297,199.879 447.5,199.5C 447.5,210.833 447.5,222.167 447.5,233.5C 463.442,227.793 476.609,231.459 487,244.5C 490.035,249.769 491.535,255.436 491.5,261.5C 481.958,352.828 434.958,415.994 350.5,451C 335.902,456.31 320.902,459.977 305.5,462C 235.522,463.47 165.522,463.97 95.5,463.5C 95.6663,470.841 95.4997,478.174 95,485.5C 93.1667,490 90,493.167 85.5,495C 65.5,495.667 45.5,495.667 25.5,495C 21,493.167 17.8333,490 16,485.5C 15.3333,422.833 15.3333,360.167 16,297.5C 17.8333,293 21,289.833 25.5,288C 45.5,287.333 65.5,287.333 85.5,288C 90,289.833 93.1667,293 95,297.5C 95.1687,304.856 95.6687,312.189 96.5,319.5C 122.896,303.089 151.562,292.923 182.5,289C 233.811,287.375 285.144,287.042 336.5,288C 351.461,291.626 361.294,300.793 366,315.5C 380.093,309.204 394.26,303.038 408.5,297C 414.549,286.403 420.216,275.57 425.5,264.5C 320.168,263.667 214.835,263.167 109.5,263C 89.6667,257.833 77.1667,245.333 72,225.5C 65.9328,180.814 75.2661,139.814 100,102.5C 102.463,99.0354 105.296,95.8688 108.5,93C 99.9518,78.0723 91.7851,62.9056 84,47.5C 81.3012,36.2261 85.6345,29.5594 97,27.5C 106.226,29.7658 115.392,31.9325 124.5,34C 130.762,27.2317 137.429,21.065 144.5,15.5 Z"
              fill="#000000"
              style="opacity:0.985"/>
    </g>
    <g>
        <path d="M 455.5,31.5 C 450.167,31.5 444.833,31.5 439.5,31.5C 439.5,26.1667 439.5,20.8333 439.5,15.5C 444.833,15.5 450.167,15.5 455.5,15.5C 455.5,20.8333 455.5,26.1667 455.5,31.5 Z"
              fill="#000000"
              style="opacity:1"/>
    </g>
    <g>
        <path d="M 439.5,31.5 C 439.5,36.8333 439.5,42.1667 439.5,47.5C 434.167,47.5 428.833,47.5 423.5,47.5C 423.5,42.1667 423.5,36.8333 423.5,31.5C 428.833,31.5 434.167,31.5 439.5,31.5 Z"
              fill="#000000"
              style="opacity:1"/>
    </g>
    <g>
        <path d="M 455.5,31.5 C 460.833,31.5 466.167,31.5 471.5,31.5C 471.5,36.8333 471.5,42.1667 471.5,47.5C 466.167,47.5 460.833,47.5 455.5,47.5C 455.5,42.1667 455.5,36.8333 455.5,31.5 Z"
              fill="#000000"
              style="opacity:1"/>
    </g>
    <g>
        <path d="M 205.5,49.5 C 205.489,51.0174 204.823,52.1841 203.5,53C 198.985,56.0299 194.651,59.1966 190.5,62.5C 188.634,61.9862 186.8,61.3195 185,60.5C 182.665,63.1652 180.832,66.1652 179.5,69.5C 172.78,72.0216 166.113,74.8549 159.5,78C 157.26,78.977 154.927,79.477 152.5,79.5C 150.479,74.2759 147.979,69.2759 145,64.5C 140.101,66.3644 135.601,68.8644 131.5,72C 133.697,76.8944 136.03,81.7277 138.5,86.5C 133.5,87.8333 128.5,87.8333 123.5,86.5C 116.548,72.7603 109.215,59.2603 101.5,46C 107.775,47.4866 114.108,49.1533 120.5,51C 124.738,51.8229 128.738,51.1562 132.5,49C 137.681,43.6516 143.015,38.485 148.5,33.5C 152.657,37.8257 156.657,42.3257 160.5,47C 166.896,50.4926 172.896,49.826 178.5,45C 182.333,41.1667 186.167,37.3333 190,33.5C 193.69,37.6886 197.19,42.022 200.5,46.5C 201.94,47.9524 203.606,48.9524 205.5,49.5 Z"
              fill="#f9ba06"
              style="opacity:1"/>
    </g>
    <g>
        <path d="M 351.5,136.5 C 346.167,141.5 340.833,146.5 335.5,151.5C 332.833,151.5 330.167,151.5 327.5,151.5C 327.5,154.5 327.5,157.5 327.5,160.5C 317.035,170.465 306.702,180.631 296.5,191C 301.489,191.499 306.489,191.666 311.5,191.5C 311.5,210.167 311.5,228.833 311.5,247.5C 303.5,247.5 295.5,247.5 287.5,247.5C 287.5,178.167 287.5,108.833 287.5,39.5C 308.833,39.5 330.167,39.5 351.5,39.5C 351.5,71.8333 351.5,104.167 351.5,136.5 Z"
              fill="#59a1fe"
              style="opacity:1"/>
    </g>
    <g>
        <path d="M 190.5,62.5 C 194.651,59.1966 198.985,56.0299 203.5,53C 204.823,52.1841 205.489,51.0174 205.5,49.5C 208.408,50.5691 211.408,50.7358 214.5,50C 219.046,47.3848 223.713,45.3848 228.5,44C 222.095,57.9783 216.095,72.145 210.5,86.5C 203.189,87.6646 195.856,87.8313 188.5,87C 191.961,80.5782 195.294,74.0782 198.5,67.5C 195.769,65.8084 193.102,64.1417 190.5,62.5 Z"
              fill="#ae8000"
              style="opacity:1"/>
    </g>
    <g>
        <path d="M 439.5,47.5 C 444.833,47.5 450.167,47.5 455.5,47.5C 455.5,52.8333 455.5,58.1667 455.5,63.5C 450.167,63.5 444.833,63.5 439.5,63.5C 439.5,58.1667 439.5,52.8333 439.5,47.5 Z"
              fill="#000000"
              style="opacity:1"/>
    </g>
    <g>
        <path d="M 303.5,55.5 C 306.167,55.5 308.833,55.5 311.5,55.5C 311.5,60.8333 311.5,66.1667 311.5,71.5C 308.833,71.5 306.167,71.5 303.5,71.5C 303.5,66.1667 303.5,60.8333 303.5,55.5 Z"
              fill="#000000"
              style="opacity:1"/>
    </g>
    <g>
        <path d="M 327.5,55.5 C 330.167,55.5 332.833,55.5 335.5,55.5C 335.5,60.8333 335.5,66.1667 335.5,71.5C 332.833,71.5 330.167,71.5 327.5,71.5C 327.5,66.1667 327.5,60.8333 327.5,55.5 Z"
              fill="#000000"
              style="opacity:1"/>
    </g>
    <g>
        <path d="M 179.5,69.5 C 176.641,75.3849 173.641,81.2183 170.5,87C 165.833,87.6667 161.167,87.6667 156.5,87C 155.027,84.5524 153.693,82.0524 152.5,79.5C 154.927,79.477 157.26,78.977 159.5,78C 166.113,74.8549 172.78,72.0216 179.5,69.5 Z"
              fill="#b08200"
              style="opacity:1"/>
    </g>
    <g>
        <path d="M 47.5,87.5 C 42.1667,87.5 36.8333,87.5 31.5,87.5C 31.5,82.1667 31.5,76.8333 31.5,71.5C 36.8333,71.5 42.1667,71.5 47.5,71.5C 47.5,76.8333 47.5,82.1667 47.5,87.5 Z"
              fill="#000000"
              style="opacity:1"/>
    </g>
    <g>
        <path d="M 479.5,71.5 C 484.833,71.5 490.167,71.5 495.5,71.5C 495.5,76.8333 495.5,82.1667 495.5,87.5C 490.167,87.5 484.833,87.5 479.5,87.5C 479.5,82.1667 479.5,76.8333 479.5,71.5 Z"
              fill="#000000"
              style="opacity:1"/>
    </g>
    <g>
        <path d="M 31.5,87.5 C 31.5,92.8333 31.5,98.1667 31.5,103.5C 26.1667,103.5 20.8333,103.5 15.5,103.5C 15.5,98.1667 15.5,92.8333 15.5,87.5C 20.8333,87.5 26.1667,87.5 31.5,87.5 Z"
              fill="#000000"
              style="opacity:1"/>
    </g>
    <g>
        <path d="M 47.5,87.5 C 52.8333,87.5 58.1667,87.5 63.5,87.5C 63.5,92.8333 63.5,98.1667 63.5,103.5C 58.1667,103.5 52.8333,103.5 47.5,103.5C 47.5,98.1667 47.5,92.8333 47.5,87.5 Z"
              fill="#000000"
              style="opacity:1"/>
    </g>
    <g>
        <path d="M 303.5,87.5 C 306.167,87.5 308.833,87.5 311.5,87.5C 311.5,92.8333 311.5,98.1667 311.5,103.5C 308.833,103.5 306.167,103.5 303.5,103.5C 303.5,98.1667 303.5,92.8333 303.5,87.5 Z"
              fill="#000000"
              style="opacity:1"/>
    </g>
    <g>
        <path d="M 327.5,87.5 C 330.167,87.5 332.833,87.5 335.5,87.5C 335.5,92.8333 335.5,98.1667 335.5,103.5C 332.833,103.5 330.167,103.5 327.5,103.5C 327.5,98.1667 327.5,92.8333 327.5,87.5 Z"
              fill="#000000"
              style="opacity:1"/>
    </g>
    <g>
        <path d="M 423.5,95.5 C 428.833,95.5 434.167,95.5 439.5,95.5C 439.5,100.833 439.5,106.167 439.5,111.5C 434.167,111.5 428.833,111.5 423.5,111.5C 423.5,106.167 423.5,100.833 423.5,95.5 Z"
              fill="#000000"
              style="opacity:1"/>
    </g>
    <g>
        <path d="M 31.5,103.5 C 36.8333,103.5 42.1667,103.5 47.5,103.5C 47.5,108.833 47.5,114.167 47.5,119.5C 42.1667,119.5 36.8333,119.5 31.5,119.5C 31.5,114.167 31.5,108.833 31.5,103.5 Z"
              fill="#000000"
              style="opacity:1"/>
    </g>
    <g>
        <path d="M 150.5,103.5 C 165.387,109.871 178.554,118.871 190,130.5C 192.945,134.751 196.112,138.751 199.5,142.5C 199.5,177.5 199.5,212.5 199.5,247.5C 170.498,247.667 141.498,247.5 112.5,247C 99.6667,243.5 91.5,235.333 88,222.5C 82.0054,178.181 92.8387,138.681 120.5,104C 130.494,103.5 140.494,103.334 150.5,103.5 Z"
              fill="#fdbd06"
              style="opacity:1"/>
    </g>
    <g>
        <path d="M 150.5,103.5 C 171.169,103.333 191.836,103.5 212.5,104C 216.003,108.668 219.003,113.668 221.5,119C 215.833,119.333 210.167,119.667 204.5,120C 203.069,120.465 201.903,121.299 201,122.5C 199.58,129.05 199.08,135.716 199.5,142.5C 196.112,138.751 192.945,134.751 190,130.5C 178.554,118.871 165.387,109.871 150.5,103.5 Z"
              fill="#b08200"
              style="opacity:1"/>
    </g>
    <g>
        <path d="M 303.5,119.5 C 306.167,119.5 308.833,119.5 311.5,119.5C 311.5,124.833 311.5,130.167 311.5,135.5C 308.833,135.5 306.167,135.5 303.5,135.5C 303.5,130.167 303.5,124.833 303.5,119.5 Z"
              fill="#000000"
              style="opacity:1"/>
    </g>
    <g>
        <path d="M 327.5,119.5 C 330.167,119.5 332.833,119.5 335.5,119.5C 335.5,124.833 335.5,130.167 335.5,135.5C 332.833,135.5 330.167,135.5 327.5,135.5C 327.5,130.167 327.5,124.833 327.5,119.5 Z"
              fill="#000000"
              style="opacity:1"/>
    </g>
    <g>
        <path d="M 151.5,135.5 C 156.833,135.5 162.167,135.5 167.5,135.5C 167.5,138.167 167.5,140.833 167.5,143.5C 180.523,141.189 185.856,146.523 183.5,159.5C 172.833,159.5 162.167,159.5 151.5,159.5C 151.5,162.167 151.5,164.833 151.5,167.5C 161.247,167.08 170.914,167.58 180.5,169C 181.701,169.903 182.535,171.069 183,172.5C 183.928,183.24 183.595,193.907 182,204.5C 177.568,207.165 172.734,208.165 167.5,207.5C 167.5,210.167 167.5,212.833 167.5,215.5C 162.167,215.5 156.833,215.5 151.5,215.5C 151.5,212.833 151.5,210.167 151.5,207.5C 138.523,209.856 133.189,204.523 135.5,191.5C 146.167,191.5 156.833,191.5 167.5,191.5C 167.5,188.833 167.5,186.167 167.5,183.5C 158.494,183.666 149.494,183.5 140.5,183C 139.069,182.535 137.903,181.701 137,180.5C 135.405,169.907 135.072,159.24 136,148.5C 136.833,146.333 138.333,144.833 140.5,144C 144.152,143.501 147.818,143.335 151.5,143.5C 151.5,140.833 151.5,138.167 151.5,135.5 Z"
              fill="#010100"
              style="opacity:1"/>
    </g>
    <g>
        <path d="M 255.5,135.5 C 255.5,140.833 255.5,146.167 255.5,151.5C 255.5,156.833 255.5,162.167 255.5,167.5C 255.5,172.833 255.5,178.167 255.5,183.5C 255.5,188.833 255.5,194.167 255.5,199.5C 255.5,204.833 255.5,210.167 255.5,215.5C 255.5,220.833 255.5,226.167 255.5,231.5C 255.5,236.833 255.5,242.167 255.5,247.5C 242.167,247.5 228.833,247.5 215.5,247.5C 215.5,210.167 215.5,172.833 215.5,135.5C 228.833,135.5 242.167,135.5 255.5,135.5 Z"
              fill="#5aa2ff"
              style="opacity:1"/>
    </g>
    <g>
        <path d="M 255.5,135.5 C 260.833,135.5 266.167,135.5 271.5,135.5C 271.5,172.833 271.5,210.167 271.5,247.5C 266.167,247.5 260.833,247.5 255.5,247.5C 255.5,242.167 255.5,236.833 255.5,231.5C 258.167,231.5 260.833,231.5 263.5,231.5C 263.5,226.167 263.5,220.833 263.5,215.5C 260.833,215.5 258.167,215.5 255.5,215.5C 255.5,210.167 255.5,204.833 255.5,199.5C 258.167,199.5 260.833,199.5 263.5,199.5C 263.5,194.167 263.5,188.833 263.5,183.5C 260.833,183.5 258.167,183.5 255.5,183.5C 255.5,178.167 255.5,172.833 255.5,167.5C 258.167,167.5 260.833,167.5 263.5,167.5C 263.5,162.167 263.5,156.833 263.5,151.5C 260.833,151.5 258.167,151.5 255.5,151.5C 255.5,146.167 255.5,140.833 255.5,135.5 Z"
              fill="#2b67b3"
              style="opacity:1"/>
    </g>
    <g>
        <path d="M 351.5,136.5 C 351.666,143.175 351.5,149.842 351,156.5C 340.303,166.863 329.97,177.529 320,188.5C 319.203,192.107 320.036,195.274 322.5,198C 326.7,199.367 331.033,199.867 335.5,199.5C 335.5,215.5 335.5,231.5 335.5,247.5C 327.5,247.5 319.5,247.5 311.5,247.5C 311.5,228.833 311.5,210.167 311.5,191.5C 306.489,191.666 301.489,191.499 296.5,191C 306.702,180.631 317.035,170.465 327.5,160.5C 327.5,162.833 327.5,165.167 327.5,167.5C 330.167,167.5 332.833,167.5 335.5,167.5C 335.5,162.167 335.5,156.833 335.5,151.5C 340.833,146.5 346.167,141.5 351.5,136.5 Z"
              fill="#2a66b2"
              style="opacity:1"/>
    </g>
    <g>
        <path d="M 390.5,139.5 C 405.914,153.412 420.914,167.912 435.5,183C 406.167,183.667 376.833,183.667 347.5,183C 362.035,168.632 376.369,154.132 390.5,139.5 Z"
              fill="#b08200"
              style="opacity:1"/>
    </g>
    <g>
        <path d="M 15.5,151.5 C 20.8333,151.5 26.1667,151.5 31.5,151.5C 31.5,156.833 31.5,162.167 31.5,167.5C 26.1667,167.5 20.8333,167.5 15.5,167.5C 15.5,162.167 15.5,156.833 15.5,151.5 Z"
              fill="#000000"
              style="opacity:1"/>
    </g>
    <g>
        <path d="M 231.5,151.5 C 234.167,151.5 236.833,151.5 239.5,151.5C 239.5,156.833 239.5,162.167 239.5,167.5C 236.833,167.5 234.167,167.5 231.5,167.5C 231.5,162.167 231.5,156.833 231.5,151.5 Z"
              fill="#000000"
              style="opacity:1"/>
    </g>
    <g>
        <path d="M 255.5,151.5 C 258.167,151.5 260.833,151.5 263.5,151.5C 263.5,156.833 263.5,162.167 263.5,167.5C 260.833,167.5 258.167,167.5 255.5,167.5C 255.5,162.167 255.5,156.833 255.5,151.5 Z"
              fill="#000000"
              style="opacity:1"/>
    </g>
    <g>
        <path d="M 303.5,151.5 C 306.167,151.5 308.833,151.5 311.5,151.5C 311.5,156.833 311.5,162.167 311.5,167.5C 308.833,167.5 306.167,167.5 303.5,167.5C 303.5,162.167 303.5,156.833 303.5,151.5 Z"
              fill="#000000"
              style="opacity:1"/>
    </g>
    <g>
        <path d="M 335.5,151.5 C 335.5,156.833 335.5,162.167 335.5,167.5C 332.833,167.5 330.167,167.5 327.5,167.5C 327.5,165.167 327.5,162.833 327.5,160.5C 327.5,157.5 327.5,154.5 327.5,151.5C 330.167,151.5 332.833,151.5 335.5,151.5 Z"
              fill="#000000"
              style="opacity:1"/>
    </g>
    <g>
        <path d="M 231.5,183.5 C 234.167,183.5 236.833,183.5 239.5,183.5C 239.5,188.833 239.5,194.167 239.5,199.5C 236.833,199.5 234.167,199.5 231.5,199.5C 231.5,194.167 231.5,188.833 231.5,183.5 Z"
              fill="#000000"
              style="opacity:1"/>
    </g>
    <g>
        <path d="M 255.5,183.5 C 258.167,183.5 260.833,183.5 263.5,183.5C 263.5,188.833 263.5,194.167 263.5,199.5C 260.833,199.5 258.167,199.5 255.5,199.5C 255.5,194.167 255.5,188.833 255.5,183.5 Z"
              fill="#000000"
              style="opacity:1"/>
    </g>
    <g>
        <path d="M 351.5,199.5 C 378.167,199.5 404.833,199.5 431.5,199.5C 431.5,215.5 431.5,231.5 431.5,247.5C 426.167,247.5 420.833,247.5 415.5,247.5C 415.96,235.066 415.46,222.733 414,210.5C 412.829,209.107 411.329,208.273 409.5,208C 397.167,207.333 384.833,207.333 372.5,208C 371.069,208.465 369.903,209.299 369,210.5C 367.54,222.733 367.04,235.066 367.5,247.5C 362.167,247.5 356.833,247.5 351.5,247.5C 351.5,231.5 351.5,215.5 351.5,199.5 Z"
              fill="#cae5fd"
              style="opacity:1"/>
    </g>
    <g>
        <path d="M 231.5,215.5 C 234.167,215.5 236.833,215.5 239.5,215.5C 239.5,220.833 239.5,226.167 239.5,231.5C 236.833,231.5 234.167,231.5 231.5,231.5C 231.5,226.167 231.5,220.833 231.5,215.5 Z"
              fill="#000000"
              style="opacity:1"/>
    </g>
    <g>
        <path d="M 255.5,215.5 C 258.167,215.5 260.833,215.5 263.5,215.5C 263.5,220.833 263.5,226.167 263.5,231.5C 260.833,231.5 258.167,231.5 255.5,231.5C 255.5,226.167 255.5,220.833 255.5,215.5 Z"
              fill="#000000"
              style="opacity:1"/>
    </g>
    <g>
        <path d="M 383.5,223.5 C 388.833,223.5 394.167,223.5 399.5,223.5C 399.5,231.5 399.5,239.5 399.5,247.5C 394.167,247.5 388.833,247.5 383.5,247.5C 383.5,239.5 383.5,231.5 383.5,223.5 Z"
              fill="#5aa2ff"
              style="opacity:1"/>
    </g>
    <g>
        <path d="M 456.5,247.5 C 467.122,246.132 473.455,250.632 475.5,261C 467.63,334.136 431.964,388.803 368.5,425C 344.502,436.999 319.169,444.332 292.5,447C 226.834,447.5 161.168,447.667 95.5,447.5C 95.3333,411.498 95.5,375.498 96,339.5C 125.414,319.384 157.914,307.551 193.5,304C 239.833,303.333 286.167,303.333 332.5,304C 351.122,311.203 355.955,323.703 347,341.5C 343.211,346.308 338.378,349.475 332.5,351C 288.168,351.5 243.835,351.667 199.5,351.5C 199.5,356.833 199.5,362.167 199.5,367.5C 245.533,367.97 291.533,367.47 337.5,366C 354.517,361.153 364.183,349.986 366.5,332.5C 384.583,325.295 402.583,317.795 420.5,310C 430.716,291.068 440.55,271.901 450,252.5C 452.326,250.934 454.492,249.268 456.5,247.5 Z"
              fill="#fee4ce"
              style="opacity:1"/>
    </g>
    <g>
        <path d="M 31.5,303.5 C 47.5,303.5 63.5,303.5 79.5,303.5C 79.5,362.167 79.5,420.833 79.5,479.5C 63.5,479.5 47.5,479.5 31.5,479.5C 31.5,420.833 31.5,362.167 31.5,303.5 Z"
              fill="#2b67b3"
              style="opacity:1"/>
    </g>
    <g>
        <path d="M 47.5,327.5 C 52.8333,327.5 58.1667,327.5 63.5,327.5C 63.5,335.5 63.5,343.5 63.5,351.5C 58.1667,351.5 52.8333,351.5 47.5,351.5C 47.5,343.5 47.5,335.5 47.5,327.5 Z"
              fill="#000000"
              style="opacity:1"/>
    </g>
</svg>
