<?xml version="1.0" encoding="utf-8"?>
<svg version="1.1" id="Layer_1" xmlns="http://www.w3.org/2000/svg" xmlns:xlink="http://www.w3.org/1999/xlink" x="0px" y="0px"
	 viewBox="0 0 512 512" style="enable-background:new 0 0 512 512;" xml:space="preserve">
<g>
	<path d="M138.9,1.1c-18.3,2.4-35.2,18.2-39.1,36.7C99,41.5,98.7,81,98.7,171.9v128.8l-8.2,0.5c-9.8,0.6-14.1,2.3-19.8,7.4
		c-6.4,5.8-8.5,10.5-8.5,19.4c0,7.8,1.5,12.1,5.8,16.7l2,2.3l-2,2.2c-3.7,4-5.6,9.1-6.1,16l-0.5,6.8l-3.6,0.5
		c-6.6,1.1-18.1,5.3-23.9,8.7c-7.6,4.5-18.9,15.9-23.5,23.8c-2.1,3.6-4.9,10.1-6.4,14.5c-2.3,6.8-2.7,9.8-2.7,20
		c0,13.5,1.3,19.4,6.9,30.6c6.7,13.2,18.8,24.9,32.3,31.1c13,5.9,12.2,5.9,94.9,5.8c73.8,0,75.7-0.1,80.2-2.1
		c15.5-6.8,20.8-25.6,11.2-39.3l-2.8-3.9l3.3-4.9c1.8-2.7,3.6-6.8,4-9.3l0.6-4.5h10.5l0.7,8.7c2.2,26.3,18.6,48.3,41.9,56.2
		c11.2,3.8,21.6,4.2,99.2,3.8c65.3-0.3,74.6-0.5,79.5-2c17.7-5.3,32.4-17.3,39.9-32.7c7.4-15.1,7.1-9,7.1-137.5s0.3-122.4-7.1-137.4
		c-5.8-11.7-15.3-21.2-27-26.9c-13.3-6.6-17.1-7.2-43.1-7.2h-22.8v-40.8c0-40-0.1-40.8-2.4-47.3c-1.2-3.6-3.4-8.2-4.9-10.3
		c-2.5-3.7-41-45-51.5-55.3c-7.1-7-17.4-12-27.2-13.3C315.6-0.1,147.9-0.1,138.9,1.1 M328.7,48.6v32.6l2.9,2.9l2.9,2.9h61.2v81
		h-48.8c-45.4,0-49.4,0.1-56.6,2c-18.4,4.7-33.4,17.3-41.4,34.8c-6.2,13.3-6.1,12.6-6.2,122.9V428h-7.6c-6.6,0-7.8-0.3-9.4-2.2
		c-1.7-2.2-1.7-2.3,0.6-5.3c7-9.2,7.1-22.7,0.1-31.8c-2.3-3-2.3-3.5-1-5.2c8.1-10.6,8.1-25.7,0.1-34.3l-2.1-2.2l2.1-2.3
		c11.4-12.1,6.2-33.7-9.8-41.1c-4.3-2-6.2-2.1-53.3-2.4l-48.7-0.3l0.2-131.2l0.3-131.2l2.8-5.3c3.7-7,9.7-12.7,16-15.1
		c5.1-1.9,7.9-2,100.5-2l95.2-0.1L328.7,48.6L328.7,48.6z M365,49.2c10.9,11.4,19.7,21.2,19.7,21.8s-7.3,1-20.5,1h-20.5V49.9
		c0-12.1,0.4-21.9,0.8-21.7C345,28.3,354.2,37.8,365,49.2 M460,183.5c3.1,0.8,7.7,2.4,10.3,3.7c6.7,3.1,16.5,12.7,20.2,19.6
		c6.5,12.2,6.3,7.1,6,136l-0.3,116.7l-2.3,6c-4.9,12.8-15.3,23.6-27.9,28.7l-5.8,2.3l-81.4,0.3c-72.4,0.2-82,0.1-87-1.4
		c-8.1-2.3-15-6.6-21.3-13.2c-5.9-6.1-8.4-10.3-11.4-19.2c-1.8-5.3-1.9-10.5-1.9-123.5v-118l2.3-6.5c5.8-16,17.6-27.2,33.5-31.5
		C300.9,181.4,451.7,181.3,460,183.5 M211.8,318.3c6.5,4.4,6.5,14.3-0.1,19.4c-1.1,0.9-16.6,1.2-64.7,1.3H83.9l-3.1-2.6
		c-3.2-2.7-4.8-7.6-3.7-11.7c0.7-3,5.1-7.5,7.9-8c1.2-0.3,29.7-0.4,63.2-0.3C204.7,316.5,209.4,316.6,211.8,318.3 M213.3,358.4
		c3.9,3.9,4.5,8.6,1.8,13.7c-2.9,5.7-4.3,5.9-49,5.9h-40.7l-7.6-2.7c-6.8-2.4-9.3-2.7-23.9-3.1c-16.1-0.4-16.2-0.4-16.8-2.8
		c-1.1-4.2,0.5-9.1,3.7-11.8l3.1-2.6h126L213.3,358.4z M110.8,387.6c17.9,5.3,32,19.4,37.3,37.3c2.1,7,2.1,20.5,0,28.5
		c-4.7,18.2-19.6,33.4-37.5,38.1c-7.3,2-22.2,1.9-29-0.1c-18.2-5.3-32.7-20.1-37.4-37.9c-2-7.7-1.9-21.6,0.1-28.6
		c5.3-17.9,19.3-32,36.9-37C89,385.6,103.6,385.5,110.8,387.6 M45.9,394.4c-2.2,2.4-5.2,6.2-6.6,8.5c-2.5,3.9-2.9,4.1-7.6,4.1
		c-2.8,0-5-0.4-5-0.9c0-3,21.1-18.3,22.8-16.6C49.8,389.7,48.2,391.9,45.9,394.4 M213.3,396.4c3.9,3.9,4.5,8.6,1.9,13.6
		c-2.9,5.6-5,6-31.3,6H160l-2.4-5.2c-1.3-2.9-4.5-8.1-7.1-11.5l-4.7-6.3h64.1L213.3,396.4z M30.4,423.2c-0.4,1.3-0.9,4.2-1.3,6.5
		l-0.7,4.3h-6.3c-6.3,0-6.4,0-6.4-2.8c0-1.5,0.5-4.4,1.1-6.5l1-3.7h6.6C30.7,421,30.9,421.1,30.4,423.2 M210.7,432.5
		c6.7,3.5,8.2,12,3.1,17.7l-2.9,3.3l-24.3,0.3l-24.2,0.3l0.7-3.2c0.3-1.7,0.6-6.9,0.6-11.5V431h22
		C203.4,431,208.4,431.3,210.7,432.5 M29.3,450.7c0.3,1.6,1,4.4,1.5,6.3s0.9,3.8,0.9,4.2c0,0.5-2.7,0.8-6.1,0.8
		c-5.8,0-6-0.1-7.4-3.3c-0.7-1.7-1.6-4.9-2-7l-0.7-3.7h6.6C28.4,448,28.7,448.1,29.3,450.7 M210.2,470.4c4,1.7,6.5,6,6.5,11.2
		c0,2.8-0.8,4.4-3.4,7l-3.4,3.4h-70.4l6.4-6.9c3.6-3.8,7.5-9,8.9-11.5l2.4-4.6H182C201.1,469,207.5,469.3,210.2,470.4 M39.7,476.9
		c0,0.5,2.3,3.5,5.1,6.6c2.9,3,4.9,5.8,4.6,6.1c-1,1-10.8-4.9-15.6-9.3l-4.6-4.2l5.3-0.1C37.3,476,39.7,476.4,39.7,476.9"/>
	<path d="M158.3,106.2c-2.2,3.1-2,7.1,0.5,9.4c2,1.8,4.7,1.9,71.4,1.9s69.4-0.1,71.4-1.9c2.6-2.4,2.8-7.7,0.3-9.9
		c-1.7-1.6-8.1-1.7-72-1.7h-70.1L158.3,106.2z M322.4,105.8c-2.4,2.6-2.1,7.5,0.4,9.8c1.8,1.6,4,2,13.4,2.2c10.6,0.3,11.3,0.2,14-2
		c3.2-2.8,3.6-6.9,1-9.8c-1.6-1.8-3.2-2-14.5-2C325.7,104,323.8,104.2,322.4,105.8 M158.9,143.3c-2.8,3-2.8,6.8,0.1,9.5
		c2.2,2,3.3,2.2,16.4,2.2c16.2,0,18.6-0.9,18.6-7s-2.4-7-18.7-7C161.7,141,160.9,141.1,158.9,143.3 M212.9,143.3
		c-2.8,3-2.8,6.8,0.1,9.5l2.3,2.2H282c65.4,0,66.7,0,68.7-2c1.1-1.1,2-3.3,2-5s-0.9-3.9-2-5c-2-2-3.3-2-68.8-2H215L212.9,143.3z
		 M186.7,170c-1.5,1.5-2,3.3-2,7c0,3.8-0.4,5-1.5,5c-2.5,0-8.8,3.6-11.7,6.7c-4,4.2-6,9.9-6,16.9c0.1,13.2,5.2,18.7,24.8,26.4
		c4.3,1.7,9,4,10.5,5c8.3,6,7.7,21.9-1.1,26.2c-4.3,2.2-13.8,2.4-18.3,0.4c-1.8-0.8-4.9-3-7-5c-4.4-4.3-7-4.4-10-0.4
		c-2,2.7-2,2.9-0.4,6.3c2.1,4.4,8.6,9.1,15.4,11.1c5.2,1.5,5.3,1.6,5.3,5.4c0,4.8,2.7,8.2,6.5,8.2s6.5-3.4,6.5-8.2
		c0-3.6,0.3-3.9,3.8-5.1c15.1-4.9,22.1-22.6,15.5-39c-2.5-6.4-9.9-12.1-21.8-16.9c-5.8-2.3-11.6-5.1-13-6.2
		c-5.8-4.6-5.4-15.1,0.9-18.9c4.4-2.7,16.4-2.6,22.5,0.1c5.4,2.5,7.3,2.5,9.6,0c2.4-2.7,2.2-7-0.5-9.2c-2.4-2-11.1-4.8-14.7-4.8
		c-2.1,0-2.3-0.5-2.3-4.5c0-5.2-2.5-8.5-6.5-8.5C189.8,168,187.8,168.9,186.7,170 M299.7,200.9c-6.9,2.1-13,7.3-16.6,14.1
		c-1.7,3.1-1.9,5.9-1.9,23.5v20l3,5.4c1.6,2.9,4.3,6.4,6,7.7c6.4,4.8,9.3,5.4,28,5.4c16.2,0,17.7-0.2,19.5-2
		c2.9-2.9,2.6-7.4-0.6-9.9c-2.5-1.9-4-2.1-18.8-2.1c-18,0-19.7-0.5-22.2-6.6c-2-4.7-1.9-31.2,0-35.9c2.9-6.8-0.7-6.6,82.2-6.3
		l74.6,0.3l2.9,3.3l2.9,3.2v17.1c0,18.5-0.7,21.5-5.7,23.8c-1.6,0.7-16.7,1.1-45.9,1.1h-43.5l-2.4,2.5c-3.1,3-3.2,6.5-0.2,9.3
		c2.3,2.2,2.5,2.2,47.3,2.2h45l5.5-2.8c6-3,11.2-9.1,12.9-15c0.5-2,1-11.4,1-20.8c0-20.3-1-24.6-7.7-31c-7.9-7.7-4.3-7.4-88.2-7.3
		C335.8,200.1,301.1,200.5,299.7,200.9 M288.7,294.2c-7,4.8-7.5,6.3-7.8,23.5c-0.4,18.1,0.6,22.6,6.6,27.1c3.5,2.6,3.9,2.7,19.5,3
		c19.3,0.4,23.2-0.6,27.5-7.1c2.7-4,2.7-4.2,2.7-21.3c0-19.2-0.3-20.3-7.5-25.2c-3.1-2.1-4.3-2.2-20.5-2.2S291.8,292.1,288.7,294.2
		 M323.2,320v13.5h-28l-0.3-13.8l-0.3-13.8l14.3,0.3l14.3,0.3V320z M355.6,294.4c-6.2,4.2-7.1,7.8-6.7,26.8
		c0.3,18.2,0.7,19.4,7.2,24.2c2.5,1.9,4.1,2.1,20.6,2.1c19.9,0,20.9-0.3,25.8-7.5c2.1-3.1,2.2-4.3,2.2-20.4
		c0-19.1-0.7-21.6-7.2-25.6c-3-1.8-5.1-2-20.8-2C359.8,292,359,292.1,355.6,294.4 M390.7,320v14h-28v-28h28V320z M424.9,294
		c-6.5,4-7.2,6.5-7.2,25.9c0,20.1,0.7,22.3,8.5,26.1c4.1,2,5.7,2.1,20.8,1.8c16-0.3,16.4-0.4,19.9-3c6-4.6,6.8-7.6,6.8-24.9
		s-1.2-21.5-7.3-25.7c-3.1-2.1-4.3-2.2-20.8-2.2C430,292,427.9,292.2,424.9,294 M459.7,320v14h-28v-28h28V320z M290.1,360.4
		c-1.7,0.8-4.4,3.1-6,5.2l-2.9,3.7v17.8c0,19.7,0.3,20.8,7.5,25.6c3.1,2.2,4.3,2.3,20.5,2.3s17.4-0.1,20.5-2.3
		c6.7-4.4,7.5-7.2,7.5-25.7c0-18.4-0.7-20.8-6.7-25.2c-3.1-2.2-4.3-2.3-20.3-2.5C297.4,359.1,292.4,359.4,290.1,360.4 M323.2,387
		v13.5l-14.2,0.3l-14.3,0.3v-28.2l14.3,0.3l14.2,0.3V387z M356.7,361.2c-7,4.8-7.5,6.2-7.8,24.4c-0.3,15.1-0.2,16.9,1.7,20.7
		c3.9,7.7,5.2,8.2,25.1,8.5c19.7,0.3,22.4-0.4,26.8-6.8c2.1-3.1,2.2-4.3,2.2-20.4c0-19.6-0.8-22.4-7.6-26.3
		c-3.6-2.1-5.2-2.3-20.5-2.3C361,359,359.8,359.1,356.7,361.2 M390.7,387v14h-28v-28h28V387z M429.2,360.9
		c-4.7,2.2-8.9,6.4-10.4,10.4c-0.7,1.9-1.1,18.4-1.1,47.6c0,44.5,0,44.8,2.3,49c1.2,2.4,4.2,5.7,6.5,7.5c4.3,3,4.7,3.1,16.9,3.4
		c15,0.4,19.5-0.8,24.7-6.9c5.6-6.6,5.7-8.1,5.4-56.1l-0.3-43.6l-3-4.3c-1.6-2.3-5-5.3-7.4-6.6c-4-2.1-5.7-2.3-17-2.3
		C435.7,359,432.4,359.4,429.2,360.9 M458.1,374.9c1.5,1.7,1.6,5.6,1.4,44.5c-0.3,41-0.4,42.8-2.2,44.2c-3,2.1-21.3,2-23.8-0.3
		c-1.7-1.5-1.8-4.2-1.8-44.8c0-32.2,0.3-43.4,1.2-44.3c0.8-0.8,5-1.2,12.3-1.2C454.8,373,456.6,373.3,458.1,374.9 M290.1,424.4
		c-3.8,1.7-7.1,5.7-8.5,10.5c-0.7,2.2-1,9.7-0.7,18.8c0.3,16.8,0.9,18.3,7.8,23c3.1,2.2,4.3,2.3,20.5,2.3s17.4-0.1,20.5-2.3
		c6.7-4.4,7.5-7.2,7.5-25.7c0-18.4-0.7-20.8-6.7-25.2c-3.1-2.2-4.3-2.3-20.3-2.5C297.5,423.1,292.4,423.4,290.1,424.4 M323.5,447
		c0.2,5.2,0.1,11.3-0.3,13.7l-0.6,4.3h-27.9v-13.3c0-7.4,0.3-13.7,0.7-14.1c0.4-0.3,6.8-0.5,14.2-0.4l13.5,0.3L323.5,447z
		 M358.2,424.4c-3.7,1.6-7,5.2-8.4,8.9c-0.6,1.6-1.1,9.8-1.1,18.4c0,13.9,0.2,15.9,2.1,19.2c4.1,7.2,5.3,7.6,25.4,7.9
		c16.6,0.2,18.3,0.1,21.3-1.8c6.5-4,7.2-6.5,7.2-25.3c0-19.6-0.8-22.3-7.5-26.2c-4-2.4-4.9-2.5-20.1-2.5
		C366.1,423.1,360.3,423.5,358.2,424.4 M390.7,451v14h-28v-28h28V451z M92,401.5c-1.2,0.8-2.4,2.8-2.8,4.4c-0.4,1.9-1.8,3.7-4,5
		c-5,2.9-7.8,9.1-7.3,16.1c0.6,8.2,3.1,11.1,14.3,16.5c9.6,4.5,11.5,6.7,9.8,11.2c-1.6,4.5-8.4,4.6-13.8,0.3
		c-4.1-3.2-6.1-3.6-8.6-1.7c-5.7,4.3-3.9,11,4,15.4c3.2,1.8,5.4,3.8,6,5.5c2.2,6.1,10.3,6.1,13.1,0c0.9-1.8,3-4.1,4.7-5.1
		c9.3-5.7,11.7-20.7,4.8-29.8c-1.4-1.7-5.1-4.4-8.2-5.8c-3.2-1.5-7.3-3.4-9-4.2c-2.6-1.2-3.3-2.1-3.3-4.3c0-4.4,5.6-5.4,13.1-2.4
		c3.9,1.6,4.2,1.6,6.7-0.3c5.4-4,3.1-10.8-4.4-13.3c-2.3-0.8-3.6-2-4-3.6C101.9,400.6,96.2,398.6,92,401.5"/>
</g>
</svg>
